<svg width="72" height="72" viewBox="0 0 72 72" fill="none" xmlns="http://www.w3.org/2000/svg">
<path d="M29.9 2.9L27 5.8V27V48.2L29.9 51.1L32.8 54H49.5H66.2L69.1 51.1L72 48.2V30.9V13.7L65.2 6.8L58.3 -8.04663e-07H45.6H32.8L29.9 2.9Z" fill="black"/>
<path d="M2.9 20.9L0 23.8V45V66.2L2.9 69.1L5.8 72H22.5H39.2L42.1 69.1C44.4 66.8 45 65.3 45 62C45 57.9 44.9 57.9 41.8 58.2C38.9 58.5 38.5 58.9 38.2 61.8L37.9 65.1L22.7 64.8L7.5 64.5V45V25.5L15 25L22.5 24.5L22.8 21.2L23.1 18H14.5C6.3 18 5.7 18.1 2.9 20.9Z" fill="black"/>
</svg>
