<svg width="227" height="227" viewBox="0 0 227 227" fill="none" xmlns="http://www.w3.org/2000/svg">
<path d="M174 0.899989C166.6 3.19999 160 9.4 92.4 77.2C37.4 132.3 20.8 149.5 19.2 153.1C17.1 157.9 1.20003 211 0.900031 214.5C0.500031 218.8 1.10003 220.8 3.50003 223.3C6.50003 226.2 9.90003 227.1 14.3 226C23 223.9 70 209.5 74 207.8C80.2 204.9 220.6 65.1 224.1 58.1C226 54.5 226.5 51.9 226.5 46C226.4 34.7 224.3 31 209.7 16.5C199.4 6.29999 196.5 3.99999 191.7 2.19999C185.9 -1.09164e-05 178.7 -0.500011 174 0.899989ZM128.9 125.6L87.8 166.7L77.2 163.9C64.9 160.8 65.4 161.3 62.4 147.2L60.7 138.9L101.6 97.9L142.5 57L156.2 70.7L170 84.5L128.9 125.6ZM45 164.7C47.7 177 49.6 179.2 60.2 181.6C63.7 182.4 66.8 183.4 67.2 183.8C67.6 184.2 67.1 185.6 66.1 186.8C64.8 188.6 60.2 190.4 46.1 194.6C36 197.6 27.6 199.9 27.3 199.7C27.1 199.4 29.4 191 32.4 180.9C36.6 166.9 38.4 162.2 40.2 160.8C41.5 159.8 42.8 159 43.1 159C43.4 159 44.3 161.6 45 164.7Z" fill="black"/>
<path d="M108.8 107.8C87.4 129.2 86 130.8 86 134.2C86 138.4 88.7 141 93 141C96.7 141 142 95.6 142 92C142 87.7 139.4 85 135.2 85C131.8 85 130.2 86.4 108.8 107.8Z" fill="black"/>
</svg>
