<svg width="336" height="336" viewBox="0 0 336 336" fill="none" xmlns="http://www.w3.org/2000/svg">
<path d="M26.9 1.3C16.6 4.2 7.9 11.7 3.1 21.9L0.5 27.5V72V116.5L3.3 122.6C6.9 130.3 13.7 137.1 21.5 140.7L27.5 143.5H72H116.5L122.6 140.7C130.3 137.1 137.1 130.3 140.7 122.5L143.5 116.5V72V27.5L140.7 21.5C137.1 13.7 130.3 6.9 122.6 3.3L116.5 0.499998L74 0.299998C42.4 0.0999979 30.3 0.399998 26.9 1.3ZM108 72V108H72H36V72V36H72H108V72Z" fill="black"/>
<path d="M61.5 54.8999C60.4 55.3999 58.4 56.9999 57 58.4999C54.7 60.9999 54.5 61.7999 54.5 72.0999V82.9999L57.8 86.1999C60.9 89.3999 61.3 89.4999 70.7 89.8999C87 90.3999 90.4 86.8999 89.8 70.3999C89.5 61.3999 89.4 60.8999 86.2 57.7999C83 54.5999 82.8 54.4999 73.2 54.2999C67.9 54.0999 62.6 54.3999 61.5 54.8999Z" fill="black"/>
<path d="M218.9 1.3C208.6 4.2 199.9 11.7 195.1 21.9L192.5 27.5V72V116.5L195.3 122.6C198.9 130.3 205.7 137.1 213.5 140.7L219.5 143.5H264H308.5L314.6 140.7C322.3 137.1 329.1 130.3 332.7 122.5L335.5 116.5V72V27.5L332.7 21.5C329.1 13.7 322.3 6.9 314.6 3.3L308.5 0.499998L266 0.299998C234.4 0.0999979 222.3 0.399998 218.9 1.3ZM300 72V108H264H228V72V36H264H300V72Z" fill="black"/>
<path d="M253.5 54.8999C252.4 55.3999 250.4 56.9999 249 58.4999C246.7 60.9999 246.5 61.7999 246.5 72.0999V82.9999L249.8 86.1999C252.9 89.3999 253.3 89.4999 262.7 89.8999C279 90.3999 282.4 86.8999 281.8 70.3999C281.5 61.3999 281.4 60.8999 278.2 57.7999C275 54.5999 274.8 54.4999 265.2 54.2999C259.9 54.0999 254.6 54.3999 253.5 54.8999Z" fill="black"/>
<path d="M26.9 193.3C16.6 196.2 7.9 203.7 3.1 213.9L0.5 219.5V264V308.5L3.3 314.6C6.9 322.3 13.7 329.1 21.5 332.7L27.5 335.5H72H116.5L122.6 332.7C130.3 329.1 137.1 322.3 140.7 314.5L143.5 308.5V264V219.5L140.7 213.5C137.1 205.7 130.3 198.9 122.6 195.3L116.5 192.5L74 192.3C42.4 192.1 30.3 192.4 26.9 193.3ZM108 264V300H72H36V264V228H72H108V264Z" fill="black"/>
<path d="M61.5 246.9C60.4 247.4 58.4 249 57 250.5C54.7 253 54.5 253.8 54.5 264.1V275L57.8 278.2C60.9 281.4 61.3 281.5 70.7 281.9C87 282.4 90.4 279 89.9 262.7C89.5 253.3 89.4 252.9 86.2 249.8C83 246.6 82.8 246.5 73.2 246.3C67.9 246.1 62.6 246.4 61.5 246.9Z" fill="black"/>
<path d="M199.5 192.9C198.4 193.4 196.4 195 195 196.5L192.5 199.2V264.1V329L195.8 332.2L199 335.5L214.8 335.8C227.8 336.1 231 335.9 233.5 334.5C239.4 331.4 239.5 331.1 240 299.8L240.5 271L243.8 267.8C246.6 265 247.7 264.5 252 264.5C258.7 264.5 262.5 268.1 264 276C264.7 279.9 265.9 282.4 268 284.5L271 287.5L298.8 287.8C323.3 288.1 326.9 287.9 329.7 286.4C336 283.1 336.1 282.4 335.8 238.5L335.5 199L332.2 195.8C329.4 193 328.3 192.5 324 192.5C317.4 192.5 313.3 196.3 312.2 203.5C310.3 214.9 307.4 216.3 286.8 215.8L271 215.5L268 212.5C265.9 210.4 264.7 207.9 264 204C263.3 200.1 262.1 197.6 260 195.5L257 192.5L229.2 192.3C214 192.2 200.6 192.5 199.5 192.9Z" fill="black"/>
<path d="M271.5 312.9C267 314.9 264.5 318.9 264.5 324.1C264.5 328.2 265 329.4 267.6 332.1C275.8 340.2 289.2 334 287.7 322.7C286.7 315.3 278 310 271.5 312.9Z" fill="black"/>
<path d="M319.5 312.9C315 314.9 312.5 318.9 312.5 324.1C312.5 328.2 313 329.4 315.6 332.1C323.8 340.2 337.2 334 335.7 322.7C334.7 315.3 326 310 319.5 312.9Z" fill="black"/>
</svg>
