<svg width="84" height="74" viewBox="0 0 84 74" fill="none" xmlns="http://www.w3.org/2000/svg">
<path fill-rule="evenodd" clip-rule="evenodd" d="M6.28525 1.03166C-2.72465 4.67129 -1.82466 19.3198 7.55424 21.6729C8.89923 22.0098 9.89722 23.0084 9.89722 24.017C9.89722 36.3743 25.0171 47.989 41.1469 48.0219L46.8968 48.0339V32.04V16.046L29.147 16.032C8.93123 16.017 7.10625 15.7281 6.27425 12.4154C4.94627 7.12536 5.42426 7.05039 40.7689 7.0354C78.7655 7.0194 82.2094 6.5056 77.2825 1.58045C75.5575 -0.143895 10.4412 -0.646705 6.28525 1.03166ZM50.8968 31.6761V47.5791L55.4437 48.6337C57.9457 49.2145 60.2237 49.3135 60.5077 48.8536C60.7917 48.3948 64.7076 45.5549 69.2106 42.542C81.0474 34.623 81.1774 34.5 80.3984 32.048C78.1345 24.9167 66.6156 17.0336 57.3777 16.2919L50.8968 15.7721V31.6761ZM33.309 25.3335C34.8709 27.8086 31.665 30.9224 29.447 29.0831C27.585 27.5377 27.469 25.8703 29.109 24.2309C30.581 22.7595 31.904 23.1073 33.309 25.3335ZM76.0655 42.7859C73.2975 44.8481 68.9776 47.76 66.4646 49.2585C59.3557 53.4989 59.9007 56.6687 68.3576 60.2793C77.9245 64.3638 82.2834 60.8561 82.9574 48.5337C83.5474 37.7378 83.2144 37.4599 76.0655 42.7859ZM37.1469 58.6919C35.6559 59.2937 35.4719 63.647 36.8999 64.5297C37.5599 64.9376 37.5249 65.8532 36.7969 67.2137C34.254 71.9639 37.0149 74.1471 45.1458 73.8182L52.3968 73.5243L52.7167 69.6208C53.2597 62.9853 52.3788 61.3809 47.2238 59.6256C42.5359 58.0282 39.4909 57.7463 37.1469 58.6919ZM56.5637 61.6958C55.1297 63.1282 55.8527 73.0705 57.4347 73.6773C60.9357 75.0198 74.1115 68.1903 71.6365 66.316C67.8816 63.4721 57.8587 60.4003 56.5637 61.6958Z" fill="black"/>
</svg>
